<?xml version="1.0" encoding="utf-8"?>
<!-- Generator: Adobe Illustrator 24.0.1, SVG Export Plug-In . SVG Version: 6.00 Build 0)  -->
<svg version="1.1" id="图层_1" xmlns="http://www.w3.org/2000/svg" xmlns:xlink="http://www.w3.org/1999/xlink" x="0px" y="0px"
	 viewBox="0 0 300 300" style="enable-background:new 0 0 300 300;" xml:space="preserve">
<style type="text/css">
	.st0{fill:#48A5DD;}
	.st1{font-family:'FZHTK--GBK1-0';}
	.st2{font-size:40px;}
	.st3{fill:#20C997;}
	.st4{fill:#2C6DD2;}
</style>
<text transform="matrix(1 0 0 1 30.207 288.1563)" class="st0 st1 st2">故障报警工具</text>
<path class="st3" d="M102.5,39.5l40.4-18.1l48.6,10.7l32.3,35.3l9.2,95.8c-62.3,9.4-120.3-33.4-129.8-95.7
	C101.9,58.3,101.6,48.9,102.5,39.5L102.5,39.5z"/>
<path class="st4" d="M54,224.5v-120c0-53,43-96,96-96s96,43,96,96v76c0,6.6-5.4,12-12,12s-12-5.4-12-12v-76c0-39.8-32.2-72-72-72
	s-72,32.2-72,72l0,0v120h180c6.6,0,12,5.4,12,12s-5.4,12-12,12H42c-6.6,0-12-5.4-12-12s5.4-12,12-12H54z M120.6,142.3
	c-5.9-3-8.3-10.2-5.3-16.1c0.6-1.2,1.4-2.3,2.4-3.2l46.8-45.1c4.8-4.6,12.4-4.5,17,0.3s4.5,12.4-0.3,17l-34.6,33.4l31.7,16
	c5.9,3,8.3,10.2,5.3,16.1c-0.8,1.5-1.8,2.8-3.1,3.9l-46.8,38.2c-5.1,4.2-12.7,3.4-16.9-1.7s-3.4-12.7,1.7-16.9l32.5-26.5
	L120.6,142.3L120.6,142.3z"/>
</svg>
