<?xml version="1.0" encoding="utf-8"?>
<!-- Generator: Adobe Illustrator 24.0.1, SVG Export Plug-In . SVG Version: 6.00 Build 0)  -->
<svg version="1.1" id="图层_1" xmlns="http://www.w3.org/2000/svg" xmlns:xlink="http://www.w3.org/1999/xlink" x="0px" y="0px"
	 viewBox="0 0 300 300" style="enable-background:new 0 0 300 300;" xml:space="preserve">
<style type="text/css">
	.st0{fill:#48A5DD;}
	.st1{font-family:'FZHTK--GBK1-0';}
	.st2{font-size:41.9404px;}
	.st3{fill:#20C997;}
	.st4{fill:#3E96D3;}
	.st5{fill:#1691C6;}
	.st6{fill:#C83C1C;}
</style>
<text transform="matrix(1 0 0 1 30.6497 281.0001)" class="st0 st1 st2">异常检测工具</text>
<path class="st3" d="M108,17.7h86.7c36.5,0,66,29.5,66,66l0,0v42.5c-15.2,8.1-32.1,12.5-49.5,12.5c-57.6,0-104.5-46.9-104.5-104.5
	C106.6,28.7,107.1,23.2,108,17.7z"/>
<path class="st4" d="M152,201.8c-1.8,0-3.5-1.1-4-2.9l-21.8-72.6l-20,40.3c-1.1,2-3.5,2.9-5.5,1.8c-0.7-0.2-1.1-0.9-1.5-1.3
	L84,144.1H44.8c-2.2,0-4.2-1.8-4.2-4.2s1.8-4.2,4.2-4.2H86c1.3,0,2.6,0.7,3.5,1.8l12.5,18.9l21.6-43.1c1.1-2,3.5-2.9,5.5-1.8
	c1.1,0.4,1.8,1.3,2,2.4l20,66.7l21.6-107.6c0.4-2,2.2-3.5,4.2-3.3c2,0,3.7,1.5,4,3.7l7.7,68.4l11.2-5.5c0.7-0.2,1.1-0.4,1.8-0.4h33
	c2.2,0,4.2,1.8,4.2,4.2c0,2.2-1.8,4.2-4.2,4.2h-32.1l-15.6,7.9c-2,1.1-4.4,0.2-5.5-1.8c-0.2-0.4-0.4-0.9-0.4-1.3l-5.3-47.7
	l-19.6,97.7C155.7,200.3,154.2,201.6,152,201.8L152,201.8L152,201.8z"/>
<path class="st5" d="M236,186.4c2.2-5.7,8.6-8.6,14.3-6.4c5.7,2.2,8.6,8.6,6.4,14.3l0,0c-9.5,26-34.3,43.3-62,43.3h-88
	c-36.5,0-66-29.5-66-66l0,0v-88c0-36.5,29.5-66,66-66l0,0h88c36.5,0,66,29.5,66,66v44c0,6.2-4.8,11-11,11s-11-4.8-11-11v-44
	c0-24.2-19.8-44-44-44h-88c-24.2,0-44,19.8-44,44v88c0,24.2,19.8,44,44,44h88C213.3,215.6,229.8,204,236,186.4L236,186.4z"/>
<polygon class="st6" points="181.4,78.8 176.8,76 172,78.2 173.1,73.1 169.6,69.1 174.8,68.5 177.5,63.9 179.7,68.7 185,69.8 
	180.8,73.3 "/>
<polygon class="st6" points="156.6,204.4 152,201.8 147.1,204 148.2,198.7 144.7,194.8 150,194.3 152.6,189.5 154.8,194.5 
	160.1,195.6 155.9,199.1 "/>
</svg>
