<?xml version="1.0" encoding="utf-8"?>
<!-- Generator: Adobe Illustrator 24.0.1, SVG Export Plug-In . SVG Version: 6.00 Build 0)  -->
<svg version="1.1" id="图层_1" xmlns="http://www.w3.org/2000/svg" xmlns:xlink="http://www.w3.org/1999/xlink" x="0px" y="0px"
	 viewBox="0 0 465 114" style="enable-background:new 0 0 465 114;" xml:space="preserve">
<style type="text/css">
	.st0{opacity:0.35;}
	.st1{fill:#3865AE;}
	.st2{fill:#FFFFFF;stroke:#FFFFFF;stroke-width:0.25;}
	.st3{fill:#4082C4;}
	.st4{fill:#3E7BB7;}
	.st5{font-family:'FZHTK--GBK1-0';}
	.st6{font-size:55.2518px;}
</style>
<g id="layer1" transform="translate(-6.3260942,-174.7524)" class="st0">
	<g id="g3052">
		<path id="path3055" class="st1" d="M62.7,197.6c-0.6,0-1.2,0.2-1.7,0.4l-23.2,11.2c-1.2,0.6-2.1,1.7-2.4,3l-5.8,25.1
			c-0.3,1.2,0,2.4,0.6,3.4c0.1,0.1,0.2,0.2,0.2,0.3l16.1,20.1c0.8,1,2.1,1.7,3.4,1.7h25.8c1.3,0,2.6-0.6,3.4-1.6l16.1-20.1
			c0.8-1,1.1-2.4,0.8-3.7l-5.7-25.1c-0.3-1.3-1.2-2.4-2.4-3l-23.1-11.1C64.2,197.7,63.4,197.6,62.7,197.6z"/>
		<path id="path3059" class="st2" d="M62.9,206.2c-0.8,0-1.4,0.7-1.4,1.5l0,0c0,0.1,0,0.3,0,0.4c0,0.5,0.1,0.9,0.2,1.3
			c0.1,1,0.2,1.8,0.2,2.5c-0.1,0.3-0.3,0.5-0.4,0.7v0.6c-0.8,0.1-1.7,0.2-2.5,0.4c-3.6,0.8-6.7,2.7-9.1,5.3
			c-0.2-0.1-0.4-0.3-0.5-0.4c-0.2,0-0.5,0.1-0.8-0.1c-0.6-0.4-1.2-1-1.9-1.7c-0.3-0.3-0.5-0.6-0.9-1c-0.1-0.1-0.2-0.2-0.3-0.2
			c-0.3-0.2-0.6-0.4-1-0.4c-0.4,0-0.8,0.2-1.1,0.5c-0.5,0.6-0.3,1.5,0.3,2l0,0c0.1,0.1,0.2,0.2,0.3,0.2c0.4,0.3,0.7,0.4,1.1,0.7
			c0.8,0.5,1.5,0.9,2,1.4c0.2,0.2,0.2,0.6,0.3,0.8l0.4,0.4c-2.4,3.6-3.4,8.1-2.8,12.6l-0.6,0.2c-0.2,0.2-0.4,0.5-0.6,0.6
			c-0.7,0.2-1.5,0.3-2.5,0.4c-0.5,0-0.8,0-1.3,0.1c-0.1,0-0.3,0.1-0.4,0.1l0,0l0,0c-0.8,0.2-1.3,0.9-1.2,1.7c0.2,0.7,1,1.2,1.8,1
			l0,0l0,0c0.1,0,0.3-0.1,0.4-0.1c0.5-0.1,0.8-0.3,1.2-0.5c0.9-0.3,1.7-0.6,2.4-0.7c0.3,0,0.6,0.2,0.8,0.3l0.6-0.1
			c1.4,4.3,4.3,7.9,8,10.1l-0.2,0.6c0.1,0.2,0.2,0.6,0.1,0.8c-0.3,0.7-0.7,1.4-1.2,2.3c-0.3,0.4-0.5,0.7-0.7,1.1
			c-0.1,0.1-0.1,0.3-0.2,0.4c-0.4,0.8-0.1,1.6,0.6,2c0.7,0.3,1.5,0,1.9-0.8l0,0l0,0c0.1-0.1,0.1-0.3,0.2-0.4
			c0.2-0.4,0.3-0.8,0.4-1.3c0.4-0.9,0.6-1.9,1.1-2.5c0.1-0.2,0.4-0.2,0.6-0.3l0.3-0.6c3.2,1.2,6.9,1.6,10.4,0.7
			c0.8-0.2,1.6-0.4,2.4-0.7c0.1,0.2,0.2,0.5,0.3,0.5c0.2,0.1,0.5,0.1,0.7,0.4c0.4,0.6,0.6,1.4,0.9,2.3c0.1,0.4,0.2,0.8,0.4,1.3
			c0,0.1,0.1,0.2,0.2,0.4c0.4,0.8,1.2,1.1,1.9,0.8c0.7-0.3,0.9-1.2,0.6-2c-0.1-0.1-0.1-0.3-0.2-0.4c-0.2-0.4-0.5-0.7-0.7-1.1
			c-0.5-0.8-1-1.5-1.2-2.2c-0.1-0.4,0-0.6,0.1-0.8c-0.1-0.1-0.2-0.4-0.2-0.6c3.9-2.3,6.7-6,8-10.1c0.2,0,0.5,0.1,0.6,0.1
			c0.2-0.1,0.4-0.3,0.8-0.3c0.7,0.1,1.5,0.4,2.4,0.7c0.4,0.2,0.8,0.4,1.2,0.5c0.1,0,0.2,0.1,0.4,0.1l0,0l0,0c0.8,0.2,1.6-0.3,1.8-1
			c0.2-0.7-0.4-1.5-1.2-1.7c-0.1,0-0.3-0.1-0.4-0.1c-0.5-0.1-0.9-0.1-1.3-0.1c-1-0.1-1.8-0.2-2.5-0.4c-0.3-0.1-0.5-0.5-0.6-0.6
			l-0.6-0.2c0.3-2.1,0.2-4.3-0.3-6.6s-1.4-4.2-2.6-6c0.1-0.1,0.4-0.4,0.5-0.4c0-0.2,0-0.5,0.3-0.8c0.5-0.5,1.2-0.9,2-1.4
			c0.4-0.2,0.7-0.4,1.1-0.7c0.1-0.1,0.2-0.2,0.3-0.2c0.7-0.5,0.8-1.4,0.3-2c-0.5-0.6-1.4-0.7-2-0.1c-0.1,0.1-0.2,0.2-0.3,0.2
			c-0.4,0.3-0.6,0.6-0.9,1c-0.7,0.7-1.2,1.3-1.9,1.7c-0.3,0.2-0.7,0.1-0.8,0.1l-0.5,0.4c-3-3.2-7.1-5.3-11.5-5.7c0-0.2,0-0.5,0-0.6
			c-0.2-0.2-0.4-0.3-0.4-0.7c-0.1-0.7,0-1.5,0.2-2.5c0.1-0.5,0.2-0.8,0.2-1.3c0-0.1,0-0.3,0-0.4C64.3,206.8,63.7,206.2,62.9,206.2
			L62.9,206.2z M61.2,217l-0.4,7.4l0,0c0,0.6-0.6,1.2-1.2,1.2c-0.3,0-0.5-0.1-0.7-0.2l0,0l-6-4.2c1.8-1.8,4.2-3.2,6.9-3.7
			C60.2,217.1,60.6,217,61.2,217z M64.6,217c3.2,0.4,6,1.8,8.3,4l-6,4.2l0,0c-0.5,0.4-1.3,0.3-1.7-0.2c-0.2-0.2-0.3-0.5-0.3-0.7l0,0
			L64.6,217z M50.7,223.8l5.5,4.9l0,0c0.5,0.4,0.6,1.2,0.2,1.7c-0.2,0.2-0.4,0.4-0.6,0.4l0,0l-7,2C48.3,229.6,49,226.5,50.7,223.8z
			 M75.1,223.8c0.8,1.3,1.4,2.8,1.8,4.5c0.4,1.6,0.4,3.2,0.3,4.6l-7-2l0,0c-0.6-0.2-1-0.8-0.9-1.4c0.1-0.3,0.2-0.5,0.4-0.6l0,0
			L75.1,223.8L75.1,223.8z M61.8,229.1H64l1.4,1.7l-0.5,2.2l-2,1l-2-1l-0.5-2.2L61.8,229.1z M69,235.1c0.1,0,0.2,0,0.3,0l0,0
			l7.2,1.2c-1,3-3,5.6-5.8,7.4l-2.8-6.9l0,0c-0.3-0.6,0-1.3,0.6-1.6C68.7,235.1,68.8,235.1,69,235.1L69,235.1z M56.8,235.1
			c0.5,0,1,0.4,1.2,0.9c0.1,0.3,0,0.5-0.1,0.8l0,0l-2.7,6.8c-2.6-1.7-4.6-4.2-5.8-7.3l7.2-1.2l0,0C56.6,235.1,56.7,235.1,56.8,235.1
			L56.8,235.1z M62.9,238.1c0.2,0,0.4,0,0.6,0.1c0.2,0.1,0.4,0.3,0.5,0.5l0,0l3.5,6.5c-0.5,0.2-0.9,0.3-1.4,0.4
			c-2.7,0.6-5.3,0.4-7.8-0.4l3.5-6.5l0,0C62.1,238.4,62.5,238.1,62.9,238.1z"/>
	</g>
</g>
<g>
	<g>
		<path class="st3" d="M93.5,49.3l4.9-5.3l-1.6-4l-1.6-4L88,35.7l2.4-6.7l-3-3l-3-3l-6.7,2.4l-0.3-7.1l-4-1.6l-4-1.6l-5.3,4.9
			l-3-6.4h-4.3h-4.3l-2.9,6.5l-5.3-4.9l-4,1.6l-4,1.6l-0.3,7.1L29.2,23l-3,3l-3,3l2.4,6.7L18.5,36l-1.6,4l-1.6,4l4.9,5.3l-6.5,2.9
			v4.5V61l6.5,2.9l-4.9,5.3l1.6,4l1.6,4l7.1,0.3l-2.4,6.7l3,3l3,3l6.7-2.4l0.3,7.1l4,1.6l4,1.6l5.3-4.9l2.9,6.5h4.3h4.3l2.9-6.5
			l5.3,4.9l4-1.6l4-1.6l0.3-7.1l6.7,2.4l3-3l3-3L88,77.6l7.1-0.3l1.6-4l1.6-4l-4.9-5.3l6.5-2.9v-4.3v-4.3L93.5,49.3z M62.7,86.5
			c-3.3,1.9-8.7,1.9-12,0l-16.9-9.8c-3.3-1.9-6-6.6-6-10.4V46.9c0-3.9,2.7-8.5,6-10.4l16.9-9.7c3.3-1.9,8.7-1.9,12,0l16.9,9.7
			c3.3,1.9,6,6.6,6,10.4v19.5c0,3.9-2.7,8.5-6,10.4L62.7,86.5z"/>
		<g>
			<g>
				<g>
					<path class="st4" d="M59.7,7.2c0,1.7-1.4,3-3,3c-1.7,0-3-1.4-3-3c0-1.7,1.4-3,3-3C58.4,4.1,59.7,5.4,59.7,7.2z"/>
					<path class="st4" d="M59.7,106.1c0,1.7-1.4,3-3,3c-1.7,0-3-1.4-3-3c0-1.7,1.4-3,3-3C58.4,103.1,59.7,104.5,59.7,106.1z"/>
				</g>
				<g>
					<circle class="st4" cx="7.2" cy="56.7" r="3"/>
					<path class="st4" d="M106.2,53.6c1.7,0,3,1.4,3,3c0,1.7-1.4,3-3,3c-1.7,0-3-1.4-3-3C103.1,55,104.5,53.6,106.2,53.6z"/>
				</g>
			</g>
			<g>
				<g>
					<path class="st4" d="M23.8,19.5c1.2,1.2,1.2,3.2,0,4.3c-1.2,1.2-3.2,1.2-4.3,0c-1.2-1.2-1.2-3.2,0-4.3
						C20.7,18.3,22.6,18.3,23.8,19.5z"/>
					<path class="st4" d="M93.9,89.5c1.2,1.2,1.2,3.2,0,4.3c-1.2,1.2-3.2,1.2-4.3,0c-1.2-1.2-1.2-3.2,0-4.3
						C90.8,88.3,92.7,88.3,93.9,89.5z"/>
				</g>
				<g>
					<path class="st4" d="M19.5,89.5c1.2-1.2,3.2-1.2,4.3,0c1.2,1.2,1.2,3.2,0,4.3c-1.2,1.2-3.2,1.2-4.3,0
						C18.4,92.7,18.4,90.7,19.5,89.5z"/>
					<path class="st4" d="M89.6,19.5c1.2-1.2,3.2-1.2,4.3,0c1.2,1.2,1.2,3.2,0,4.3c-1.2,1.2-3.2,1.2-4.3,0
						C88.3,22.6,88.3,20.7,89.6,19.5z"/>
				</g>
			</g>
		</g>
	</g>
</g>
<text transform="matrix(1 0 0 1 133.9009 78.7559)" class="st5 st6">故障注入工具</text>
</svg>
