<?xml version="1.0" encoding="utf-8"?>
<!-- Generator: Adobe Illustrator 24.0.1, SVG Export Plug-In . SVG Version: 6.00 Build 0)  -->
<svg version="1.1" id="图层_1" xmlns="http://www.w3.org/2000/svg" xmlns:xlink="http://www.w3.org/1999/xlink" x="0px" y="0px"
	 viewBox="0 0 300 300" style="enable-background:new 0 0 300 300;" xml:space="preserve">
<style type="text/css">
	.st0{opacity:0.35;}
	.st1{fill:#3865AE;}
	.st2{fill:#FFFFFF;stroke:#FFFFFF;stroke-width:0.25;}
	.st3{fill:#009FE8;}
	.st4{fill:#48A5DD;}
	.st5{font-family:'FZHTK--GBK1-0';}
	.st6{font-size:41.9404px;}
</style>
<g id="layer1" transform="translate(-6.3260942,-174.7524)" class="st0">
	<g id="g3052">
		<path id="path3055" class="st1" d="M154.8,220.3c-1.4,0-2.8,0.5-3.9,0.9L98,246.8c-2.8,1.4-4.8,3.9-5.5,6.9L79.3,311
			c-0.7,2.8,0,5.5,1.4,7.8c0.2,0.2,0.5,0.5,0.5,0.7l36.7,45.9c1.8,2.3,4.8,3.9,7.8,3.9h58.8c3,0,6-1.4,7.8-3.7l36.7-45.9
			c1.8-2.3,2.5-5.5,1.8-8.5L217.8,254c-0.7-3-2.8-5.5-5.5-6.9l-52.8-25.4C158.2,220.5,156.4,220.3,154.8,220.3z"/>
		<path id="path3059" class="st2" d="M155.2,239.9c-1.8,0-3.2,1.6-3.2,3.5l0,0c0,0.2,0,0.7,0,0.9c0,1.2,0.2,2.1,0.5,3
			c0.2,2.3,0.5,4.2,0.5,5.8c-0.2,0.7-0.7,1.2-0.9,1.6v1.4c-1.8,0.2-3.9,0.5-5.8,0.9c-8.3,1.8-15.2,6.2-20.8,12
			c-0.5-0.2-0.9-0.7-1.2-0.9c-0.5,0-1.2,0.2-1.8-0.2c-1.4-0.9-2.8-2.3-4.4-3.9c-0.7-0.7-1.2-1.4-2.1-2.3c-0.2-0.2-0.5-0.5-0.7-0.5
			c-0.7-0.5-1.4-0.9-2.3-0.9s-1.8,0.5-2.5,1.2c-1.2,1.4-0.7,3.5,0.7,4.6l0,0c0.2,0.2,0.5,0.5,0.7,0.5c0.9,0.7,1.6,0.9,2.5,1.6
			c1.8,1.2,3.5,2.1,4.6,3.2c0.5,0.5,0.5,1.4,0.7,1.8l0.9,0.9c-5.5,8.3-7.8,18.5-6.5,28.8l-1.4,0.5c-0.5,0.5-0.9,1.2-1.4,1.4
			c-1.6,0.5-3.5,0.7-5.8,0.9c-1.2,0-1.8,0-3,0.2c-0.2,0-0.7,0.2-0.9,0.2l0,0l0,0c-1.8,0.5-3,2.1-2.8,3.9c0.5,1.6,2.3,2.8,4.2,2.3
			l0,0l0,0c0.2,0,0.7-0.2,0.9-0.2c1.2-0.2,1.8-0.7,2.8-1.2c2.1-0.7,3.9-1.4,5.5-1.6c0.7,0,1.4,0.5,1.8,0.7l1.4-0.2
			c3.2,9.9,9.9,18,18.2,23.1l-0.5,1.4c0.2,0.5,0.5,1.4,0.2,1.8c-0.7,1.6-1.6,3.2-2.8,5.3c-0.7,0.9-1.2,1.6-1.6,2.5
			c-0.2,0.2-0.2,0.7-0.5,0.9c-0.9,1.8-0.2,3.7,1.4,4.6c1.6,0.7,3.5,0,4.4-1.8l0,0l0,0c0.2-0.2,0.2-0.7,0.5-0.9
			c0.5-0.9,0.7-1.8,0.9-3c0.9-2.1,1.4-4.4,2.5-5.8c0.2-0.5,0.9-0.5,1.4-0.7l0.7-1.4c7.4,2.8,15.7,3.7,23.8,1.6
			c1.8-0.5,3.7-0.9,5.5-1.6c0.2,0.5,0.5,1.2,0.7,1.2c0.5,0.2,1.2,0.2,1.6,0.9c0.9,1.4,1.4,3.2,2.1,5.3c0.2,0.9,0.5,1.8,0.9,3
			c0,0.2,0.2,0.5,0.5,0.9c0.9,1.8,2.8,2.5,4.4,1.8c1.6-0.7,2.1-2.8,1.4-4.6c-0.2-0.2-0.2-0.7-0.5-0.9c-0.5-0.9-1.2-1.6-1.6-2.5
			c-1.2-1.8-2.3-3.5-2.8-5.1c-0.2-0.9,0-1.4,0.2-1.8c-0.2-0.2-0.5-0.9-0.5-1.4c8.8-5.3,15.2-13.6,18.2-23.1c0.5,0,1.2,0.2,1.4,0.2
			c0.5-0.2,0.9-0.7,1.8-0.7c1.6,0.2,3.5,0.9,5.5,1.6c0.9,0.5,1.8,0.9,2.8,1.2c0.2,0,0.5,0.2,0.9,0.2l0,0l0,0
			c1.8,0.5,3.7-0.7,4.2-2.3c0.5-1.6-0.9-3.5-2.8-3.9c-0.2,0-0.7-0.2-0.9-0.2c-1.2-0.2-2.1-0.2-3-0.2c-2.3-0.2-4.2-0.5-5.8-0.9
			c-0.7-0.2-1.2-1.2-1.4-1.4l-1.4-0.5c0.7-4.8,0.5-9.9-0.7-15c-1.2-5.1-3.2-9.7-6-13.8c0.2-0.2,0.9-0.9,1.2-0.9c0-0.5,0-1.2,0.7-1.8
			c1.2-1.2,2.8-2.1,4.6-3.2c0.9-0.5,1.6-0.9,2.5-1.6c0.2-0.2,0.5-0.5,0.7-0.5c1.6-1.2,1.8-3.2,0.7-4.6c-1.2-1.4-3.2-1.6-4.6-0.2
			c-0.2,0.2-0.5,0.5-0.7,0.5c-0.9,0.7-1.4,1.4-2.1,2.3c-1.6,1.6-2.8,3-4.4,3.9c-0.7,0.5-1.6,0.2-1.8,0.2l-1.2,0.9
			c-6.9-7.2-16.2-12-26.3-12.9c0-0.5,0-1.2,0-1.4c-0.5-0.5-0.9-0.7-0.9-1.6c-0.2-1.6,0-3.5,0.5-5.8c0.2-1.2,0.5-1.8,0.5-3
			c0-0.2,0-0.7,0-0.9C158.5,241.3,157.1,239.9,155.2,239.9L155.2,239.9z M151.3,264.6l-0.9,16.8l0,0c0,1.4-1.4,2.8-2.8,2.8
			c-0.7,0-1.2-0.2-1.6-0.5l0,0l-13.6-9.7c4.2-4.2,9.5-7.2,15.7-8.5C149,264.8,150.1,264.6,151.3,264.6z M159.1,264.6
			c7.2,0.9,13.8,4.2,18.9,9.2l-13.6,9.7l0,0c-1.2,0.9-3,0.7-3.9-0.5c-0.5-0.5-0.7-1.2-0.7-1.6l0,0L159.1,264.6z M127.3,280.1
			l12.5,11.3l0,0c1.2,0.9,1.4,2.8,0.5,3.9c-0.5,0.5-0.9,0.9-1.4,0.9l0,0l-15.9,4.6C121.8,293.4,123.6,286.1,127.3,280.1z
			 M183.1,280.1c1.8,3,3.2,6.5,4.2,10.2c0.9,3.7,0.9,7.2,0.7,10.6l-15.9-4.6l0,0c-1.4-0.5-2.3-1.8-2.1-3.2c0.2-0.7,0.5-1.2,0.9-1.4
			l0,0L183.1,280.1L183.1,280.1z M152.7,292.1h5.1l3.2,3.9l-1.2,5.1l-4.6,2.3l-4.6-2.3l-1.2-5.1L152.7,292.1z M169.1,305.9
			c0.2,0,0.5,0,0.7,0l0,0l16.4,2.8c-2.3,6.9-6.9,12.7-13.2,16.8l-6.5-15.7l0,0c-0.7-1.4,0-3,1.4-3.7
			C168.4,305.9,168.6,305.9,169.1,305.9L169.1,305.9z M141.4,305.9c1.2,0,2.3,0.9,2.8,2.1c0.2,0.7,0,1.2-0.2,1.8l0,0l-6.2,15.5
			c-6-3.9-10.6-9.5-13.2-16.6l16.4-2.8l0,0C140.9,305.9,141.1,305.9,141.4,305.9L141.4,305.9z M155.2,312.6c0.5,0,0.9,0,1.4,0.2
			s0.9,0.7,1.2,1.2l0,0l8.1,14.8c-1.2,0.5-2.1,0.7-3.2,0.9c-6.2,1.4-12.2,0.9-17.8-0.9l8.1-14.8l0,0
			C153.4,313.3,154.3,312.6,155.2,312.6z"/>
	</g>
</g>
<g>
	<g>
		<path class="st3" d="M233.2,105.9l11.1-12l-3.7-9.2l-3.7-9.2l-16.2-0.7l5.5-15.2l-6.9-6.9l-6.9-6.9l-15.2,5.5L196.5,35l-9.2-3.7
			l-9.2-3.7l-12,11.1L159.3,24h-9.9h-9.9l-6.7,14.8l-12-11.1l-9.2,3.7l-9.2,3.7l-0.7,16.2l-15.2-5.5l-6.9,6.9l-6.9,6.9l5.5,15.2
			L62,75.4l-3.7,9.2l-3.7,9.2l11.1,12l-14.8,6.7v10.2v9.9l14.8,6.7l-11.1,12l3.7,9.2l3.7,9.2l16.2,0.7l-5.5,15.2l6.9,6.9l6.9,6.9
			l15.2-5.5l0.7,16.2l9.2,3.7l9.2,3.7l12-11.1l6.7,14.8h9.9h9.9l6.7-14.8l12,11.1l9.2-3.7l9.2-3.7l0.7-16.2l15.2,5.5l6.9-6.9
			l6.9-6.9l-5.5-15.2l16.2-0.7l3.7-9.2l3.7-9.2l-11.1-12l14.8-6.7v-9.9v-9.9L233.2,105.9z M162.8,190.8c-7.6,4.4-19.8,4.4-27.5,0
			l-38.5-22.4c-7.6-4.4-13.6-15-13.6-23.8v-44.3c0-8.8,6.2-19.4,13.6-23.8l38.5-22.2c7.6-4.4,19.8-4.4,27.5,0l38.5,22.2
			c7.6,4.4,13.6,15,13.6,23.8v44.5c0,8.8-6.2,19.4-13.6,23.8L162.8,190.8z"/>
		<g>
			<g>
				<g>
					<path class="st3" d="M156.1,9.7c0,3.9-3.2,6.9-6.9,6.9c-3.9,0-6.9-3.2-6.9-6.9c0-3.9,3.2-6.9,6.9-6.9
						C153.1,2.7,156.1,5.7,156.1,9.7z"/>
					<path class="st3" d="M156.1,235.6c0,3.9-3.2,6.9-6.9,6.9c-3.9,0-6.9-3.2-6.9-6.9c0-3.9,3.2-6.9,6.9-6.9
						C153.1,228.7,156.1,231.9,156.1,235.6z"/>
				</g>
				<g>
					<circle class="st3" cx="36.1" cy="122.7" r="6.9"/>
					<path class="st3" d="M262.3,115.6c3.9,0,6.9,3.2,6.9,6.9c0,3.9-3.2,6.9-6.9,6.9c-3.9,0-6.9-3.2-6.9-6.9
						C255.1,118.8,258.3,115.6,262.3,115.6z"/>
				</g>
			</g>
			<g>
				<g>
					<path class="st3" d="M74.2,37.8c2.8,2.8,2.8,7.2,0,9.9c-2.8,2.8-7.2,2.8-9.9,0c-2.8-2.8-2.8-7.2,0-9.9C67,35,71.4,35,74.2,37.8
						z"/>
					<path class="st3" d="M234.1,197.7c2.8,2.8,2.8,7.2,0,9.9c-2.8,2.8-7.2,2.8-9.9,0s-2.8-7.2,0-9.9C227,195,231.3,195,234.1,197.7
						z"/>
				</g>
				<g>
					<path class="st3" d="M64.3,197.7c2.8-2.8,7.2-2.8,9.9,0c2.8,2.8,2.8,7.2,0,9.9c-2.8,2.8-7.2,2.8-9.9,0
						C61.7,204.9,61.7,200.3,64.3,197.7z"/>
					<path class="st3" d="M224.2,37.8c2.8-2.8,7.2-2.8,9.9,0c2.8,2.8,2.8,7.2,0,9.9c-2.8,2.8-7.2,2.8-9.9,0
						C221.4,45,221.4,40.6,224.2,37.8z"/>
				</g>
			</g>
		</g>
	</g>
</g>
<text transform="matrix(1 0 0 1 24.1912 284.8646)" class="st4 st5 st6">故障注入工具</text>
</svg>
