<?xml version="1.0" encoding="utf-8"?>
<!-- Generator: Adobe Illustrator 24.0.1, SVG Export Plug-In . SVG Version: 6.00 Build 0)  -->
<svg version="1.1" id="图层_1" xmlns="http://www.w3.org/2000/svg" xmlns:xlink="http://www.w3.org/1999/xlink" x="0px" y="0px"
	 viewBox="0 0 930 228" style="enable-background:new 0 0 930 228;" xml:space="preserve">
<style type="text/css">
	.st0{opacity:0.35;}
	.st1{fill:#3865AE;}
	.st2{fill:#FFFFFF;stroke:#FFFFFF;stroke-width:0.25;}
	.st3{fill:#009FE8;}
	.st4{fill:#48A5DD;}
	.st5{font-family:'FZHTK--GBK1-0';}
	.st6{font-size:110.5036px;}
</style>
<g id="layer1" transform="translate(-6.3260942,-174.7524)" class="st0">
	<g id="g3052">
		<path id="path3055" class="st1" d="M116.8,220.9c-1.2,0-2.5,0.4-3.4,0.8l-46.3,22.4c-2.5,1.2-4.2,3.4-4.8,6l-11.6,50.2
			c-0.6,2.5,0,4.8,1.2,6.8c0.2,0.2,0.4,0.4,0.4,0.6L84.5,348c1.6,2,4.2,3.4,6.8,3.4h51.5c2.6,0,5.3-1.2,6.8-3.2l32.2-40.2
			c1.6-2,2.2-4.8,1.6-7.4L172,250.4c-0.6-2.6-2.5-4.8-4.8-6l-46.3-22.3C119.8,221,118.2,220.9,116.8,220.9z"/>
		<path id="path3059" class="st2" d="M117.2,238c-1.6,0-2.8,1.4-2.8,3.1l0,0c0,0.2,0,0.6,0,0.8c0,1.1,0.2,1.8,0.4,2.6
			c0.2,2,0.4,3.7,0.4,5.1c-0.2,0.6-0.6,1.1-0.8,1.4v1.2c-1.6,0.2-3.4,0.4-5.1,0.8c-7.3,1.6-13.3,5.4-18.2,10.5
			c-0.4-0.2-0.8-0.6-1.1-0.8c-0.4,0-1.1,0.2-1.6-0.2c-1.2-0.8-2.5-2-3.9-3.4c-0.6-0.6-1.1-1.2-1.8-2c-0.2-0.2-0.4-0.4-0.6-0.4
			c-0.6-0.4-1.2-0.8-2-0.8c-0.8,0-1.6,0.4-2.2,1.1c-1.1,1.2-0.6,3.1,0.6,4l0,0c0.2,0.2,0.4,0.4,0.6,0.4c0.8,0.6,1.4,0.8,2.2,1.4
			c1.6,1.1,3.1,1.8,4,2.8c0.4,0.4,0.4,1.2,0.6,1.6l0.8,0.8c-4.8,7.3-6.8,16.2-5.7,25.2l-1.2,0.4c-0.4,0.4-0.8,1.1-1.2,1.2
			c-1.4,0.4-3.1,0.6-5.1,0.8c-1.1,0-1.6,0-2.6,0.2c-0.2,0-0.6,0.2-0.8,0.2l0,0l0,0c-1.6,0.4-2.6,1.8-2.5,3.4c0.4,1.4,2,2.5,3.7,2
			l0,0l0,0c0.2,0,0.6-0.2,0.8-0.2c1.1-0.2,1.6-0.6,2.5-1.1c1.8-0.6,3.4-1.2,4.8-1.4c0.6,0,1.2,0.4,1.6,0.6l1.2-0.2
			c2.8,8.7,8.7,15.8,15.9,20.2l-0.4,1.2c0.2,0.4,0.4,1.2,0.2,1.6c-0.6,1.4-1.4,2.8-2.5,4.6c-0.6,0.8-1.1,1.4-1.4,2.2
			c-0.2,0.2-0.2,0.6-0.4,0.8c-0.8,1.6-0.2,3.2,1.2,4c1.4,0.6,3.1,0,3.9-1.6l0,0l0,0c0.2-0.2,0.2-0.6,0.4-0.8
			c0.4-0.8,0.6-1.6,0.8-2.6c0.8-1.8,1.2-3.9,2.2-5.1c0.2-0.4,0.8-0.4,1.2-0.6l0.6-1.2c6.5,2.5,13.8,3.2,20.9,1.4
			c1.6-0.4,3.2-0.8,4.8-1.4c0.2,0.4,0.4,1.1,0.6,1.1c0.4,0.2,1.1,0.2,1.4,0.8c0.8,1.2,1.2,2.8,1.8,4.6c0.2,0.8,0.4,1.6,0.8,2.6
			c0,0.2,0.2,0.4,0.4,0.8c0.8,1.6,2.5,2.2,3.9,1.6c1.4-0.6,1.8-2.5,1.2-4c-0.2-0.2-0.2-0.6-0.4-0.8c-0.4-0.8-1.1-1.4-1.4-2.2
			c-1.1-1.6-2-3.1-2.5-4.5c-0.2-0.8,0-1.2,0.2-1.6c-0.2-0.2-0.4-0.8-0.4-1.2c7.7-4.6,13.3-11.9,15.9-20.2c0.4,0,1.1,0.2,1.2,0.2
			c0.4-0.2,0.8-0.6,1.6-0.6c1.4,0.2,3.1,0.8,4.8,1.4c0.8,0.4,1.6,0.8,2.5,1.1c0.2,0,0.4,0.2,0.8,0.2l0,0l0,0c1.6,0.4,3.2-0.6,3.7-2
			c0.4-1.4-0.8-3.1-2.5-3.4c-0.2,0-0.6-0.2-0.8-0.2c-1.1-0.2-1.8-0.2-2.6-0.2c-2-0.2-3.7-0.4-5.1-0.8c-0.6-0.2-1.1-1.1-1.2-1.2
			l-1.2-0.4c0.6-4.2,0.4-8.7-0.6-13.1s-2.8-8.5-5.3-12.1c0.2-0.2,0.8-0.8,1.1-0.8c0-0.4,0-1.1,0.6-1.6c1.1-1.1,2.5-1.8,4-2.8
			c0.8-0.4,1.4-0.8,2.2-1.4c0.2-0.2,0.4-0.4,0.6-0.4c1.4-1.1,1.6-2.8,0.6-4c-1.1-1.2-2.8-1.4-4-0.2c-0.2,0.2-0.4,0.4-0.6,0.4
			c-0.8,0.6-1.2,1.2-1.8,2c-1.4,1.4-2.5,2.6-3.9,3.4c-0.6,0.4-1.4,0.2-1.6,0.2l-1.1,0.8c-6-6.3-14.2-10.5-23-11.3c0-0.4,0-1.1,0-1.2
			c-0.4-0.4-0.8-0.6-0.8-1.4c-0.2-1.4,0-3.1,0.4-5.1c0.2-1.1,0.4-1.6,0.4-2.6c0-0.2,0-0.6,0-0.8C120.1,239.3,118.8,238,117.2,238
			L117.2,238z M113.8,259.7l-0.8,14.7l0,0c0,1.2-1.2,2.5-2.5,2.5c-0.6,0-1.1-0.2-1.4-0.4l0,0l-11.9-8.5c3.7-3.7,8.3-6.3,13.8-7.4
			C111.7,259.8,112.7,259.7,113.8,259.7z M120.6,259.7c6.3,0.8,12.1,3.7,16.6,8.1l-11.9,8.5l0,0c-1.1,0.8-2.6,0.6-3.4-0.4
			c-0.4-0.4-0.6-1.1-0.6-1.4l0,0L120.6,259.7z M92.7,273.2l11,9.9l0,0c1.1,0.8,1.2,2.5,0.4,3.4c-0.4,0.4-0.8,0.8-1.2,0.8l0,0
			l-13.9,4C87.9,284.9,89.5,278.5,92.7,273.2z M141.6,273.2c1.6,2.6,2.8,5.7,3.7,8.9c0.8,3.2,0.8,6.3,0.6,9.3l-13.9-4l0,0
			c-1.2-0.4-2-1.6-1.8-2.8c0.2-0.6,0.4-1.1,0.8-1.2l0,0L141.6,273.2L141.6,273.2z M115,283.8h4.5l2.8,3.4l-1.1,4.5l-4,2l-4-2
			l-1.1-4.5L115,283.8z M129.3,295.8c0.2,0,0.4,0,0.6,0l0,0l14.4,2.5c-2,6-6,11.1-11.6,14.7l-5.7-13.8l0,0c-0.6-1.2,0-2.6,1.2-3.2
			C128.7,295.8,128.9,295.8,129.3,295.8L129.3,295.8z M105.1,295.8c1.1,0,2,0.8,2.5,1.8c0.2,0.6,0,1.1-0.2,1.6l0,0l-5.4,13.6
			c-5.3-3.4-9.3-8.3-11.6-14.5l14.4-2.5l0,0C104.6,295.8,104.8,295.8,105.1,295.8L105.1,295.8z M117.2,301.7c0.4,0,0.8,0,1.2,0.2
			c0.4,0.2,0.8,0.6,1.1,1.1l0,0l7.1,13c-1.1,0.4-1.8,0.6-2.8,0.8c-5.4,1.2-10.7,0.8-15.6-0.8l7.1-13l0,0
			C115.6,302.3,116.4,301.7,117.2,301.7z"/>
	</g>
</g>
<g>
	<g>
		<path class="st3" d="M184.7,99l9.7-10.5l-3.2-8.1l-3.2-8.1l-14.2-0.6l4.8-13.3l-6-6l-6-6l-13.3,4.8l-0.6-14.3l-8.1-3.2l-8.1-3.2
			l-10.5,9.7l-6-12.9h-8.7h-8.7l-5.9,13l-10.5-9.7l-8.1,3.2l-8.1,3.2l-0.6,14.2l-13.3-4.8l-6,6l-6,6l4.8,13.3l-14.2,0.5l-3.2,8.1
			l-3.2,8.1L38,98.9l-13,5.9v8.9v8.7l13,5.9l-9.7,10.5l3.2,8.1l3.2,8.1l14.2,0.6l-4.8,13.3l6,6l6,6l13.3-4.8l0.6,14.2l8.1,3.2
			l8.1,3.2l10.5-9.7l5.9,13h8.7h8.7l5.9-13l10.5,9.7l8.1-3.2l8.1-3.2l0.6-14.2l13.3,4.8l6-6l6-6l-4.8-13.3l14.2-0.6l3.2-8.1l3.2-8.1
			l-9.7-10.5l13-5.9v-8.7V105L184.7,99z M123,173.4c-6.7,3.9-17.3,3.9-24.1,0l-33.7-19.6c-6.7-3.9-11.9-13.1-11.9-20.9V94.1
			c0-7.7,5.4-17,11.9-20.9l33.7-19.4c6.7-3.9,17.3-3.9,24.1,0l33.7,19.4c6.7,3.9,11.9,13.1,11.9,20.9v39c0,7.7-5.4,17-11.9,20.9
			L123,173.4z"/>
		<g>
			<g>
				<g>
					<path class="st3" d="M117.2,14.7c0,3.4-2.8,6-6,6c-3.4,0-6-2.8-6-6c0-3.4,2.8-6,6-6C114.5,8.6,117.2,11.2,117.2,14.7z"/>
					<path class="st3" d="M117.2,212.6c0,3.4-2.8,6-6,6c-3.4,0-6-2.8-6-6c0-3.4,2.8-6,6-6C114.5,206.6,117.2,209.4,117.2,212.6z"/>
				</g>
				<g>
					<circle class="st3" cx="12" cy="113.7" r="6"/>
					<path class="st3" d="M210.2,107.5c3.4,0,6,2.8,6,6c0,3.4-2.8,6-6,6c-3.4,0-6-2.8-6-6C203.9,110.3,206.7,107.5,210.2,107.5z"/>
				</g>
			</g>
			<g>
				<g>
					<path class="st3" d="M45.4,39.3c2.5,2.5,2.5,6.3,0,8.7c-2.5,2.5-6.3,2.5-8.7,0c-2.5-2.5-2.5-6.3,0-8.7
						C39.1,36.9,43,36.9,45.4,39.3z"/>
					<path class="st3" d="M185.5,179.4c2.5,2.5,2.5,6.3,0,8.7c-2.5,2.5-6.3,2.5-8.7,0c-2.4-2.5-2.5-6.3,0-8.7
						C179.3,177,183.1,177,185.5,179.4z"/>
				</g>
				<g>
					<path class="st3" d="M36.7,179.4c2.5-2.5,6.3-2.5,8.7,0c2.5,2.5,2.5,6.3,0,8.7c-2.5,2.5-6.3,2.5-8.7,0
						C34.5,185.7,34.5,181.7,36.7,179.4z"/>
					<path class="st3" d="M176.8,39.3c2.5-2.5,6.3-2.5,8.7,0c2.5,2.5,2.5,6.3,0,8.7c-2.5,2.5-6.3,2.5-8.7,0
						C174.4,45.6,174.4,41.8,176.8,39.3z"/>
				</g>
			</g>
		</g>
	</g>
</g>
<text transform="matrix(1 0 0 1 265.5283 157.8633)" class="st4 st5 st6">故障注入工具</text>
</svg>
