<?xml version="1.0" encoding="utf-8"?>
<!-- Generator: Adobe Illustrator 24.0.1, SVG Export Plug-In . SVG Version: 6.00 Build 0)  -->
<svg version="1.1" id="图层_1" xmlns="http://www.w3.org/2000/svg" xmlns:xlink="http://www.w3.org/1999/xlink" x="0px" y="0px"
	 viewBox="0 0 464.7 113.7" style="enable-background:new 0 0 464.7 113.7;" xml:space="preserve">
<style type="text/css">
	.st0{opacity:0.35;}
	.st1{fill:#3865AE;}
	.st2{fill:#FFFFFF;stroke:#FFFFFF;stroke-width:0.25;}
	.st3{fill:#009FE8;}
	.st4{fill:#48A5DD;}
	.st5{font-family:'ArialMT';}
	.st6{font-size:41.9404px;}
	.st7{font-family:'FZHTK--GBK1-0';}
</style>
<g id="layer1" transform="translate(-6.3260942,-174.7524)" class="st0">
	<g id="g3052">
		<path id="path3055" class="st1" d="M104.5,198.3c-0.6,0-1.2,0.2-1.7,0.4l-22.9,11.1c-1.2,0.6-2.1,1.7-2.4,3l-5.7,24.8
			c-0.3,1.2,0,2.4,0.6,3.4c0.1,0.1,0.2,0.2,0.2,0.3l15.9,19.9c0.8,1,2.1,1.7,3.4,1.7l25.5,0c1.3,0,2.6-0.6,3.4-1.6l15.9-19.9
			c0.8-1,1.1-2.4,0.8-3.7l-5.7-24.8c-0.3-1.3-1.2-2.4-2.4-3l-22.9-11C106,198.4,105.2,198.3,104.5,198.3z"/>
		<path id="path3059" class="st2" d="M104.7,206.8c-0.8,0-1.4,0.7-1.4,1.5c0,0,0,0,0,0c0,0.1,0,0.3,0,0.4c0,0.5,0.1,0.9,0.2,1.3
			c0.1,1,0.2,1.8,0.2,2.5c-0.1,0.3-0.3,0.5-0.4,0.7l0,0.6c-0.8,0.1-1.7,0.2-2.5,0.4c-3.6,0.8-6.6,2.7-9,5.2
			c-0.2-0.1-0.4-0.3-0.5-0.4c-0.2,0-0.5,0.1-0.8-0.1c-0.6-0.4-1.2-1-1.9-1.7c-0.3-0.3-0.5-0.6-0.9-1c-0.1-0.1-0.2-0.2-0.3-0.2
			c-0.3-0.2-0.6-0.4-1-0.4c-0.4,0-0.8,0.2-1.1,0.5c-0.5,0.6-0.3,1.5,0.3,2c0,0,0,0,0,0c0.1,0.1,0.2,0.2,0.3,0.2
			c0.4,0.3,0.7,0.4,1.1,0.7c0.8,0.5,1.5,0.9,2,1.4c0.2,0.2,0.2,0.6,0.3,0.8l0.4,0.4c-2.4,3.6-3.4,8-2.8,12.5l-0.6,0.2
			c-0.2,0.2-0.4,0.5-0.6,0.6c-0.7,0.2-1.5,0.3-2.5,0.4c-0.5,0-0.8,0-1.3,0.1c-0.1,0-0.3,0.1-0.4,0.1c0,0,0,0,0,0c0,0,0,0,0,0
			c-0.8,0.2-1.3,0.9-1.2,1.7c0.2,0.7,1,1.2,1.8,1c0,0,0,0,0,0c0,0,0,0,0,0c0.1,0,0.3-0.1,0.4-0.1c0.5-0.1,0.8-0.3,1.2-0.5
			c0.9-0.3,1.7-0.6,2.4-0.7c0.3,0,0.6,0.2,0.8,0.3l0.6-0.1c1.4,4.3,4.3,7.8,7.9,10l-0.2,0.6c0.1,0.2,0.2,0.6,0.1,0.8
			c-0.3,0.7-0.7,1.4-1.2,2.3c-0.3,0.4-0.5,0.7-0.7,1.1c-0.1,0.1-0.1,0.3-0.2,0.4c-0.4,0.8-0.1,1.6,0.6,2c0.7,0.3,1.5,0,1.9-0.8
			c0,0,0,0,0,0c0,0,0,0,0,0c0.1-0.1,0.1-0.3,0.2-0.4c0.2-0.4,0.3-0.8,0.4-1.3c0.4-0.9,0.6-1.9,1.1-2.5c0.1-0.2,0.4-0.2,0.6-0.3
			l0.3-0.6c3.2,1.2,6.8,1.6,10.3,0.7c0.8-0.2,1.6-0.4,2.4-0.7c0.1,0.2,0.2,0.5,0.3,0.5c0.2,0.1,0.5,0.1,0.7,0.4
			c0.4,0.6,0.6,1.4,0.9,2.3c0.1,0.4,0.2,0.8,0.4,1.3c0,0.1,0.1,0.2,0.2,0.4c0.4,0.8,1.2,1.1,1.9,0.8c0.7-0.3,0.9-1.2,0.6-2
			c-0.1-0.1-0.1-0.3-0.2-0.4c-0.2-0.4-0.5-0.7-0.7-1.1c-0.5-0.8-1-1.5-1.2-2.2c-0.1-0.4,0-0.6,0.1-0.8c-0.1-0.1-0.2-0.4-0.2-0.6
			c3.8-2.3,6.6-5.9,7.9-10c0.2,0,0.5,0.1,0.6,0.1c0.2-0.1,0.4-0.3,0.8-0.3c0.7,0.1,1.5,0.4,2.4,0.7c0.4,0.2,0.8,0.4,1.2,0.5
			c0.1,0,0.2,0.1,0.4,0.1c0,0,0,0,0,0c0,0,0,0,0,0c0.8,0.2,1.6-0.3,1.8-1c0.2-0.7-0.4-1.5-1.2-1.7c-0.1,0-0.3-0.1-0.4-0.1
			c-0.5-0.1-0.9-0.1-1.3-0.1c-1-0.1-1.8-0.2-2.5-0.4c-0.3-0.1-0.5-0.5-0.6-0.6l-0.6-0.2c0.3-2.1,0.2-4.3-0.3-6.5
			c-0.5-2.2-1.4-4.2-2.6-6c0.1-0.1,0.4-0.4,0.5-0.4c0-0.2,0-0.5,0.3-0.8c0.5-0.5,1.2-0.9,2-1.4c0.4-0.2,0.7-0.4,1.1-0.7
			c0.1-0.1,0.2-0.2,0.3-0.2c0.7-0.5,0.8-1.4,0.3-2c-0.5-0.6-1.4-0.7-2-0.1c-0.1,0.1-0.2,0.2-0.3,0.2c-0.4,0.3-0.6,0.6-0.9,1
			c-0.7,0.7-1.2,1.3-1.9,1.7c-0.3,0.2-0.7,0.1-0.8,0.1l-0.5,0.4c-3-3.1-7-5.2-11.4-5.6c0-0.2,0-0.5,0-0.6c-0.2-0.2-0.4-0.3-0.4-0.7
			c-0.1-0.7,0-1.5,0.2-2.5c0.1-0.5,0.2-0.8,0.2-1.3c0-0.1,0-0.3,0-0.4C106.1,207.4,105.5,206.8,104.7,206.8L104.7,206.8z M103,217.5
			l-0.4,7.3l0,0c0,0.6-0.6,1.2-1.2,1.2c-0.3,0-0.5-0.1-0.7-0.2l0,0l-5.9-4.2c1.8-1.8,4.1-3.1,6.8-3.7
			C102,217.6,102.5,217.5,103,217.5z M106.4,217.5c3.1,0.4,6,1.8,8.2,4l-5.9,4.2l0,0c-0.5,0.4-1.3,0.3-1.7-0.2
			c-0.2-0.2-0.3-0.5-0.3-0.7l0,0L106.4,217.5z M92.6,224.2l5.4,4.9l0,0c0.5,0.4,0.6,1.2,0.2,1.7c-0.2,0.2-0.4,0.4-0.6,0.4l0,0
			l-6.9,2C90.2,230,91,226.8,92.6,224.2z M116.8,224.2c0.8,1.3,1.4,2.8,1.8,4.4c0.4,1.6,0.4,3.1,0.3,4.6l-6.9-2l0,0
			c-0.6-0.2-1-0.8-0.9-1.4c0.1-0.3,0.2-0.5,0.4-0.6l0,0L116.8,224.2L116.8,224.2z M103.6,229.4h2.2l1.4,1.7l-0.5,2.2l-2,1l-2-1
			l-0.5-2.2L103.6,229.4z M110.7,235.4c0.1,0,0.2,0,0.3,0l0,0l7.1,1.2c-1,3-3,5.5-5.7,7.3l-2.8-6.8l0,0c-0.3-0.6,0-1.3,0.6-1.6
			C110.4,235.4,110.5,235.4,110.7,235.4L110.7,235.4z M98.7,235.4c0.5,0,1,0.4,1.2,0.9c0.1,0.3,0,0.5-0.1,0.8l0,0l-2.7,6.7
			c-2.6-1.7-4.6-4.1-5.7-7.2l7.1-1.2l0,0C98.5,235.4,98.6,235.4,98.7,235.4L98.7,235.4z M104.7,238.3c0.2,0,0.4,0,0.6,0.1
			c0.2,0.1,0.4,0.3,0.5,0.5h0l3.5,6.4c-0.5,0.2-0.9,0.3-1.4,0.4c-2.7,0.6-5.3,0.4-7.7-0.4l3.5-6.4h0
			C103.9,238.6,104.3,238.3,104.7,238.3z"/>
	</g>
</g>
<g>
	<g>
		<path class="st3" d="M134.9,49.7l4.8-5.2l-1.6-4l-1.6-4l-7-0.3l2.4-6.6l-3-3l-3-3l-6.6,2.4l-0.3-7l-4-1.6l-4-1.6l-5.2,4.8
			l-2.9-6.4h-4.3h-4.3l-2.9,6.4l-5.2-4.8l-4,1.6l-4,1.6l-0.3,7l-6.6-2.4l-3,3l-3,3l2.4,6.6l-7,0.3l-1.6,4l-1.6,4l4.8,5.2l-6.4,2.9
			V57v4.3l6.4,2.9l-4.8,5.2l1.6,4l1.6,4l7,0.3l-2.4,6.6l3,3l3,3l6.6-2.4l0.3,7l4,1.6l4,1.6l5.2-4.8l2.9,6.4h4.3h4.3l2.9-6.4l5.2,4.8
			l4-1.6l4-1.6l0.3-7l6.6,2.4l3-3l3-3l-2.4-6.6l7-0.3l1.6-4l1.6-4l-4.8-5.2l6.4-2.9V57v-4.3L134.9,49.7z M104.4,86.5
			c-3.3,1.9-8.6,1.9-11.9,0l-16.7-9.7c-3.3-1.9-5.9-6.5-5.9-10.3V47.3c0-3.8,2.7-8.4,5.9-10.3l16.7-9.6c3.3-1.9,8.6-1.9,11.9,0
			l16.7,9.6c3.3,1.9,5.9,6.5,5.9,10.3v19.3c0,3.8-2.7,8.4-5.9,10.3L104.4,86.5z"/>
		<g>
			<g>
				<g>
					<path class="st3" d="M101.5,8c0,1.7-1.4,3-3,3c-1.7,0-3-1.4-3-3c0-1.7,1.4-3,3-3C100.2,5,101.5,6.3,101.5,8z"/>
					<path class="st3" d="M101.5,105.9c0,1.7-1.4,3-3,3c-1.7,0-3-1.4-3-3c0-1.7,1.4-3,3-3C100.2,102.9,101.5,104.3,101.5,105.9z"/>
				</g>
				<g>
					<circle class="st3" cx="49.5" cy="57" r="3"/>
					<path class="st3" d="M147.5,53.9c1.7,0,3,1.4,3,3c0,1.7-1.4,3-3,3c-1.7,0-3-1.4-3-3C144.4,55.3,145.8,53.9,147.5,53.9z"/>
				</g>
			</g>
			<g>
				<g>
					<path class="st3" d="M66,20.2c1.2,1.2,1.2,3.1,0,4.3c-1.2,1.2-3.1,1.2-4.3,0c-1.2-1.2-1.2-3.1,0-4.3C62.9,19,64.8,19,66,20.2z"
						/>
					<path class="st3" d="M135.3,89.5c1.2,1.2,1.2,3.1,0,4.3c-1.2,1.2-3.1,1.2-4.3,0c-1.2-1.2-1.2-3.1,0-4.3
						C132.2,88.3,134.1,88.3,135.3,89.5z"/>
				</g>
				<g>
					<path class="st3" d="M61.7,89.5c1.2-1.2,3.1-1.2,4.3,0c1.2,1.2,1.2,3.1,0,4.3c-1.2,1.2-3.1,1.2-4.3,0
						C60.6,92.6,60.6,90.6,61.7,89.5z"/>
					<path class="st3" d="M131,20.2c1.2-1.2,3.1-1.2,4.3,0c1.2,1.2,1.2,3.1,0,4.3c-1.2,1.2-3.1,1.2-4.3,0
						C129.8,23.3,129.8,21.4,131,20.2z"/>
				</g>
			</g>
		</g>
	</g>
</g>
<text transform="matrix(1 0 0 1 207.0408 44.9562)" class="st4 st5 st6">CHAOS</text>
<text transform="matrix(1 0 0 1 154.8777 88.5646)" class="st4 st7 st6">故障注入工具</text>
</svg>
