<?xml version="1.0" encoding="utf-8"?>
<!-- Generator: Adobe Illustrator 24.0.1, SVG Export Plug-In . SVG Version: 6.00 Build 0)  -->
<svg version="1.1" id="图层_1" xmlns="http://www.w3.org/2000/svg" xmlns:xlink="http://www.w3.org/1999/xlink" x="0px" y="0px"
	 viewBox="0 0 1024 1024" style="enable-background:new 0 0 1024 1024;" xml:space="preserve">
<style type="text/css">
	.st0{fill:#FFFFFF;}
	.st1{fill:#4598CC;}
	.st2{fill:#43A1DB;}
	.st3{fill:#E83F29;}
	.st4{fill:#F6BE57;}
	.st5{fill:#489AD5;}
	.st6{fill:#48A5DD;}
	.st7{font-family:'FZHTK--GBK1-0';}
	.st8{font-size:40px;}
</style>
<path class="st0" d="M445.5,437.4h141.2v141.2H445.5V437.4z"/>
<path class="st0" d="M539.6,578.6c-35.6-47.1,26.1-78.1,0-141.2"/>
<path class="st1" d="M555.1,578.6c-1,0-2-0.5-2.6-1.3c-19.3-25.4-11.6-46.5-3.6-68.8c7.6-21.3,15.5-43.3,3.2-73.1
	c-0.7-1.6,0.1-3.5,1.7-4.2s3.5,0.1,4.2,1.7c13.3,32.1,4.6,56.3-3.2,77.7c-7.8,21.4-14.4,40.2,2.7,62.7c1.1,1.4,0.8,3.4-0.6,4.5
	c-0.6,0.4-1.2,0.6-1.9,0.6L555.1,578.6z"/>
<path class="st0" d="M492.5,578.6c-35.6-47.1,26.1-78.1,0-141.2"/>
<path class="st1" d="M475.6,581.8c-1,0-2-0.5-2.6-1.3c-19.3-25.4-11.6-46.5-3.6-68.8c7.6-21.3,15.5-43.3,3.2-73.1
	c-0.7-1.6,0.1-3.5,1.7-4.2c1.6-0.7,3.5,0.1,4.2,1.7c13.3,32.1,4.6,56.3-3.2,77.7S461,554,478,576.6c1.1,1.4,0.8,3.4-0.6,4.5
	c-0.6,0.4-1.2,0.6-1.9,0.6L475.6,581.8z"/>
<path class="st0" d="M584.9,532.8c-53.6-41.4-97.6,28.3-141.2,0"/>
<path class="st2" d="M468.9,551c-8.9,0.1-17.7-2.5-25.1-7.5c-1.5-1-1.9-3-1-4.5s3-1.9,4.5-1c18.7,12.2,38,4.7,58.4-3.2
	c24.6-9.5,52.6-20.2,82.9,3.2c1.3,1.2,1.5,3.2,0.3,4.5c-1.1,1.2-2.9,1.4-4.2,0.5c-27.5-21-52.6-11.4-76.7-2.2
	C495.2,545.9,482.1,551,468.9,551L468.9,551z"/>
<path class="st1" d="M472.3,515c-8.9,0.1-17.7-2.5-25.1-7.5c-1.5-1-1.9-3-1-4.5s3-1.9,4.5-1l0,0c18.7,12.2,38,4.7,58.4-3.2
	c24.7-9.5,52.6-20.2,82.9,3.2c1.3,1.2,1.5,3.2,0.3,4.5c-1.1,1.2-2.9,1.4-4.2,0.5c-27.5-21.2-52.5-11.6-76.8-2.3
	C498.5,510,485.4,515,472.3,515L472.3,515z"/>
<path class="st1" d="M513.9,578.6c-1,0-2-0.5-2.6-1.3c-19.3-25.4-11.6-46.5-3.6-68.8c7.6-21.3,15.5-43.3,3.2-73.1
	c-0.7-1.6,0.1-3.5,1.7-4.2c1.6-0.7,3.5,0.1,4.2,1.7c13.3,32.1,4.6,56.3-3.2,77.7c-7.8,21.4-14.4,40.2,2.7,62.7
	c1.1,1.4,0.8,3.4-0.6,4.5c-0.6,0.4-1.2,0.6-1.9,0.6L513.9,578.6z"/>
<path class="st1" d="M468.9,481.6c-8.9,0.1-17.7-2.5-25.1-7.5c-1.5-1-1.9-3-1-4.5s3-1.9,4.5-1l0,0c18.7,12.2,38,4.7,58.4-3.2
	c24.7-9.5,52.6-20.2,82.9,3.2c1.3,1.2,1.5,3.2,0.3,4.5c-1.1,1.2-2.9,1.4-4.2,0.5c-27.5-21.2-52.5-11.6-76.8-2.3
	C495.2,476.6,482.1,481.6,468.9,481.6L468.9,481.6z"/>
<circle class="st3" cx="513.5" cy="499.9" r="5.6"/>
<circle class="st4" cx="558.4" cy="491.6" r="5.6"/>
<circle class="st4" cx="520.6" cy="463.5" r="5.6"/>
<circle class="st4" cx="472.7" cy="512.1" r="5.6"/>
<path class="st5" d="M615.3,432.1l-98.2-43.6c-1.4-0.6-3-0.6-4.4,0l-98.2,43.6c-2,0.9-3.2,2.8-3.2,5v55.7
	c0,56.2,33.1,107.1,84.3,129.7c8.4,3.7,14.7,5.5,19.4,5.5c4.6,0,11-1.8,19.4-5.5c51.2-22.6,84.3-73.5,84.3-129.7v-55.7
	C618.6,434.9,617.3,433,615.3,432.1L615.3,432.1z M607.7,492.8c0,51.9-30.5,98.9-77.8,119.7c-9,4-13.2,4.6-15,4.6s-5.9-0.6-15-4.6
	c-47.2-20.8-77.8-67.8-77.8-119.7v-52.1l92.7-41.2l92.7,41.2V492.8z"/>
<text transform="matrix(1 0 0 1 393.207 673.1563)" class="st6 st7 st8">故障定位工具</text>
</svg>
