<?xml version="1.0" encoding="utf-8"?>
<!-- Generator: Adobe Illustrator 24.0.1, SVG Export Plug-In . SVG Version: 6.00 Build 0)  -->
<svg version="1.1" id="图层_1" xmlns="http://www.w3.org/2000/svg" xmlns:xlink="http://www.w3.org/1999/xlink" x="0px" y="0px"
	 viewBox="0 0 300 300" style="enable-background:new 0 0 300 300;" xml:space="preserve">
<style type="text/css">
	.st0{fill:#FFFFFF;}
	.st1{fill:#4598CC;}
	.st2{fill:#43A1DB;}
	.st3{fill:#E83F29;}
	.st4{fill:#F6BE57;}
	.st5{fill:#489AD5;}
	.st6{fill:#48A5DD;}
	.st7{font-family:'FZHTK--GBK1-0';}
	.st8{font-size:40px;}
</style>
<path class="st0" d="M79.5,56.4h141.2v141.2H79.5V56.4z"/>
<path class="st0" d="M173.6,197.6c-35.6-47.1,26.1-78.1,0-141.2"/>
<path class="st1" d="M189.1,197.6c-1,0-2-0.5-2.6-1.3c-19.3-25.4-11.6-46.5-3.6-68.8c7.6-21.3,15.5-43.3,3.2-73.1
	c-0.7-1.6,0.1-3.5,1.7-4.2s3.5,0.1,4.2,1.7c13.3,32.1,4.6,56.3-3.2,77.7c-7.8,21.4-14.4,40.2,2.7,62.7c1.1,1.4,0.8,3.4-0.6,4.5
	c-0.6,0.4-1.2,0.6-1.9,0.6L189.1,197.6z"/>
<path class="st0" d="M126.5,197.6c-35.6-47.1,26.1-78.1,0-141.2"/>
<path class="st1" d="M109.6,200.8c-1,0-2-0.5-2.6-1.3c-19.3-25.4-11.6-46.5-3.6-68.8c7.6-21.3,15.5-43.3,3.2-73.1
	c-0.7-1.6,0.1-3.5,1.7-4.2s3.5,0.1,4.2,1.7c13.3,32.1,4.6,56.3-3.2,77.7c-7.8,21.4-14.3,40.2,2.7,62.8c1.1,1.4,0.8,3.4-0.6,4.5
	c-0.6,0.4-1.2,0.6-1.9,0.6L109.6,200.8z"/>
<path class="st0" d="M218.9,151.8c-53.6-41.4-97.6,28.3-141.2,0"/>
<path class="st2" d="M102.9,170c-8.9,0.1-17.7-2.5-25.1-7.5c-1.5-1-1.9-3-1-4.5s3-1.9,4.5-1c18.7,12.2,38,4.7,58.4-3.2
	c24.6-9.5,52.6-20.2,82.9,3.2c1.3,1.2,1.5,3.2,0.3,4.5c-1.1,1.2-2.9,1.4-4.2,0.5c-27.5-21-52.6-11.4-76.7-2.2
	C129.2,164.9,116.1,170,102.9,170L102.9,170z"/>
<path class="st1" d="M106.3,134c-8.9,0.1-17.7-2.5-25.1-7.5c-1.5-1-1.9-3-1-4.5s3-1.9,4.5-1l0,0c18.7,12.2,38,4.7,58.4-3.2
	c24.7-9.5,52.6-20.2,82.9,3.2c1.3,1.2,1.5,3.2,0.3,4.5c-1.1,1.2-2.9,1.4-4.2,0.5c-27.5-21.2-52.5-11.6-76.8-2.3
	C132.5,129,119.4,134,106.3,134L106.3,134z"/>
<path class="st1" d="M147.9,197.6c-1,0-2-0.5-2.6-1.3c-19.3-25.4-11.6-46.5-3.6-68.8c7.6-21.3,15.5-43.3,3.2-73.1
	c-0.7-1.6,0.1-3.5,1.7-4.2c1.6-0.7,3.5,0.1,4.2,1.7c13.3,32.1,4.6,56.3-3.2,77.7c-7.8,21.4-14.4,40.2,2.7,62.7
	c1.1,1.4,0.8,3.4-0.6,4.5c-0.6,0.4-1.2,0.6-1.9,0.6L147.9,197.6z"/>
<path class="st1" d="M102.9,100.6c-8.9,0.1-17.7-2.5-25.1-7.5c-1.5-1-1.9-3-1-4.5s3-1.9,4.5-1l0,0c18.7,12.2,38,4.7,58.4-3.2
	c24.7-9.5,52.6-20.2,82.9,3.2c1.3,1.2,1.5,3.2,0.3,4.5c-1.1,1.2-2.9,1.4-4.2,0.5c-27.5-21.2-52.5-11.6-76.8-2.3
	C129.2,95.6,116.1,100.6,102.9,100.6L102.9,100.6z"/>
<ellipse transform="matrix(0.1602 -0.9871 0.9871 0.1602 6.5084 245.4497)" class="st3" cx="147.5" cy="118.9" rx="5.6" ry="5.6"/>
<circle class="st4" cx="192.4" cy="110.6" r="5.6"/>
<circle class="st4" cx="154.6" cy="82.5" r="5.6"/>
<circle class="st4" cx="106.7" cy="131.1" r="5.6"/>
<path class="st5" d="M249.3,53.1L151.1,9.5c-1.4-0.6-3-0.6-4.4,0L48.5,53.1c-2,0.9-3.2,2.8-3.2,5v55.7c0,56.2,33.1,107.1,84.3,129.7
	c8.4,3.7,14.7,5.5,19.4,5.5c4.6,0,11-1.8,19.4-5.5c51.2-22.6,84.3-73.5,84.3-129.7V58.1C252.6,55.9,251.3,54,249.3,53.1L249.3,53.1z
	 M241.7,113.8c0,51.9-30.5,98.9-77.8,119.7c-9,4-13.2,4.6-15,4.6s-5.9-0.6-15-4.6c-47.2-20.8-77.8-67.8-77.8-119.7V61.7l92.7-41.2
	l92.7,41.2v52.1H241.7z"/>
<text transform="matrix(1 0 0 1 30.207 288.1563)" class="st6 st7 st8">故障定位工具</text>
</svg>
